<svg width="1200" height="628" viewBox="0 0 1200 628" fill="none" xmlns="http://www.w3.org/2000/svg">
<g clip-path="url(#clip0_2485_50)">
<rect width="1200" height="628" fill="black"/>
<g opacity="0.2">
<line x1="20.125" y1="2.18557e-08" x2="20.125" y2="628" stroke="white"/>
<line x1="39.75" y1="2.18557e-08" x2="39.75" y2="628" stroke="white"/>
<line x1="59.375" y1="2.18557e-08" x2="59.375" y2="628" stroke="white"/>
<line x1="79.0002" y1="2.18557e-08" x2="79.0001" y2="628" stroke="white"/>
<line x1="98.625" y1="2.18557e-08" x2="98.625" y2="628" stroke="white"/>
<line x1="118.25" y1="2.18557e-08" x2="118.25" y2="628" stroke="white"/>
<line x1="137.875" y1="2.18557e-08" x2="137.875" y2="628" stroke="white"/>
<line x1="157.5" y1="2.18557e-08" x2="157.5" y2="628" stroke="white"/>
<line x1="177.125" y1="2.18557e-08" x2="177.125" y2="628" stroke="white"/>
<line x1="196.75" y1="2.18557e-08" x2="196.75" y2="628" stroke="white"/>
<line x1="216.375" y1="2.18557e-08" x2="216.375" y2="628" stroke="white"/>
<line x1="236" y1="2.18557e-08" x2="236" y2="628" stroke="white"/>
<line x1="255.625" y1="2.18557e-08" x2="255.625" y2="628" stroke="white"/>
<line x1="275.25" y1="2.18557e-08" x2="275.25" y2="628" stroke="white"/>
<line x1="294.875" y1="2.18557e-08" x2="294.875" y2="628" stroke="white"/>
<line x1="314.5" y1="2.18557e-08" x2="314.5" y2="628" stroke="white"/>
<line x1="334.125" y1="2.18557e-08" x2="334.125" y2="628" stroke="white"/>
<line x1="353.75" y1="2.18557e-08" x2="353.75" y2="628" stroke="white"/>
<line x1="373.375" y1="2.18557e-08" x2="373.375" y2="628" stroke="white"/>
<line x1="393" y1="2.18557e-08" x2="393" y2="628" stroke="white"/>
<line x1="412.625" y1="2.18557e-08" x2="412.625" y2="628" stroke="white"/>
<line x1="432.25" y1="2.18557e-08" x2="432.25" y2="628" stroke="white"/>
<line x1="451.875" y1="2.18557e-08" x2="451.875" y2="628" stroke="white"/>
<line x1="471.5" y1="2.18557e-08" x2="471.5" y2="628" stroke="white"/>
<line x1="491.125" y1="2.18557e-08" x2="491.125" y2="628" stroke="white"/>
<line x1="510.75" y1="2.18557e-08" x2="510.75" y2="628" stroke="white"/>
<line x1="530.375" y1="2.18557e-08" x2="530.375" y2="628" stroke="white"/>
<line x1="550" y1="2.18557e-08" x2="550" y2="628" stroke="white"/>
<line x1="569.625" y1="2.18557e-08" x2="569.625" y2="628" stroke="white"/>
<line x1="589.25" y1="2.18557e-08" x2="589.25" y2="628" stroke="white"/>
<line x1="608.875" y1="2.18557e-08" x2="608.875" y2="628" stroke="white"/>
<line x1="628.5" y1="2.18557e-08" x2="628.5" y2="628" stroke="white"/>
<line x1="628" y1="20.125" x2="-4.37113e-08" y2="20.1249" stroke="white"/>
<line x1="628" y1="39.75" x2="-4.37113e-08" y2="39.7499" stroke="white"/>
<line x1="628" y1="59.375" x2="-4.37113e-08" y2="59.3749" stroke="white"/>
<line x1="628" y1="79.0001" x2="-4.37113e-08" y2="79.0001" stroke="white"/>
<line x1="628" y1="98.625" x2="-4.37113e-08" y2="98.6249" stroke="white"/>
<line x1="628" y1="118.25" x2="-4.37113e-08" y2="118.25" stroke="white"/>
<line x1="628" y1="137.875" x2="-4.37113e-08" y2="137.875" stroke="white"/>
<line x1="628" y1="157.5" x2="-4.37113e-08" y2="157.5" stroke="white"/>
<line x1="628" y1="177.125" x2="-4.37113e-08" y2="177.125" stroke="white"/>
<line x1="628" y1="196.75" x2="-4.37113e-08" y2="196.75" stroke="white"/>
<line x1="628" y1="216.375" x2="-4.37113e-08" y2="216.375" stroke="white"/>
<line x1="628" y1="236" x2="-4.37113e-08" y2="236" stroke="white"/>
<line x1="628" y1="255.625" x2="-4.37113e-08" y2="255.625" stroke="white"/>
<line x1="628" y1="275.25" x2="-4.37113e-08" y2="275.25" stroke="white"/>
<line x1="628" y1="294.875" x2="-4.37113e-08" y2="294.875" stroke="white"/>
<line x1="628" y1="314.5" x2="-4.37113e-08" y2="314.5" stroke="white"/>
<line x1="628" y1="334.125" x2="-4.37113e-08" y2="334.125" stroke="white"/>
<line x1="628" y1="353.75" x2="-4.37113e-08" y2="353.75" stroke="white"/>
<line x1="628" y1="373.375" x2="-4.37113e-08" y2="373.375" stroke="white"/>
<line x1="628" y1="393" x2="-4.37113e-08" y2="393" stroke="white"/>
<line x1="628" y1="412.625" x2="-4.37113e-08" y2="412.625" stroke="white"/>
<line x1="628" y1="432.25" x2="-4.37113e-08" y2="432.25" stroke="white"/>
<line x1="628" y1="451.875" x2="-4.37113e-08" y2="451.875" stroke="white"/>
<line x1="628" y1="471.5" x2="-4.37113e-08" y2="471.5" stroke="white"/>
<line x1="628" y1="491.125" x2="-4.37113e-08" y2="491.125" stroke="white"/>
<line x1="628" y1="510.75" x2="-4.37113e-08" y2="510.75" stroke="white"/>
<line x1="628" y1="530.375" x2="-4.37113e-08" y2="530.375" stroke="white"/>
<line x1="628" y1="550" x2="-4.37113e-08" y2="550" stroke="white"/>
<line x1="628" y1="569.625" x2="-4.37113e-08" y2="569.625" stroke="white"/>
<line x1="628" y1="589.25" x2="-4.37113e-08" y2="589.25" stroke="white"/>
<line x1="628" y1="608.875" x2="-4.37113e-08" y2="608.875" stroke="white"/>
<line x1="648.125" y1="2.18557e-08" x2="648.125" y2="628" stroke="white"/>
<line x1="667.75" y1="2.18557e-08" x2="667.75" y2="628" stroke="white"/>
<line x1="687.375" y1="2.18557e-08" x2="687.375" y2="628" stroke="white"/>
<line x1="707" y1="2.18557e-08" x2="707" y2="628" stroke="white"/>
<line x1="726.625" y1="2.18557e-08" x2="726.625" y2="628" stroke="white"/>
<line x1="746.25" y1="2.18557e-08" x2="746.25" y2="628" stroke="white"/>
<line x1="765.875" y1="2.18557e-08" x2="765.875" y2="628" stroke="white"/>
<line x1="785.5" y1="2.18557e-08" x2="785.5" y2="628" stroke="white"/>
<line x1="805.125" y1="2.18557e-08" x2="805.125" y2="628" stroke="white"/>
<line x1="824.75" y1="2.18557e-08" x2="824.75" y2="628" stroke="white"/>
<line x1="844.375" y1="2.18557e-08" x2="844.375" y2="628" stroke="white"/>
<line x1="864" y1="2.18557e-08" x2="864" y2="628" stroke="white"/>
<line x1="883.625" y1="2.18557e-08" x2="883.625" y2="628" stroke="white"/>
<line x1="903.25" y1="2.18557e-08" x2="903.25" y2="628" stroke="white"/>
<line x1="922.875" y1="2.18557e-08" x2="922.875" y2="628" stroke="white"/>
<line x1="942.5" y1="2.18557e-08" x2="942.5" y2="628" stroke="white"/>
<line x1="962.125" y1="2.18557e-08" x2="962.125" y2="628" stroke="white"/>
<line x1="981.75" y1="2.18557e-08" x2="981.75" y2="628" stroke="white"/>
<line x1="1001.38" y1="2.18557e-08" x2="1001.38" y2="628" stroke="white"/>
<line x1="1021" y1="2.18557e-08" x2="1021" y2="628" stroke="white"/>
<line x1="1040.63" y1="2.18557e-08" x2="1040.63" y2="628" stroke="white"/>
<line x1="1060.25" y1="2.18557e-08" x2="1060.25" y2="628" stroke="white"/>
<line x1="1079.88" y1="2.18557e-08" x2="1079.88" y2="628" stroke="white"/>
<line x1="1099.5" y1="2.18557e-08" x2="1099.5" y2="628" stroke="white"/>
<line x1="1119.13" y1="2.18557e-08" x2="1119.13" y2="628" stroke="white"/>
<line x1="1138.75" y1="2.18557e-08" x2="1138.75" y2="628" stroke="white"/>
<line x1="1158.38" y1="2.18557e-08" x2="1158.38" y2="628" stroke="white"/>
<line x1="1178" y1="2.18557e-08" x2="1178" y2="628" stroke="white"/>
<line x1="1197.63" y1="2.18557e-08" x2="1197.63" y2="628" stroke="white"/>
<line x1="1256" y1="20.125" x2="628" y2="20.1249" stroke="white"/>
<line x1="1256" y1="39.75" x2="628" y2="39.7499" stroke="white"/>
<line x1="1256" y1="59.375" x2="628" y2="59.3749" stroke="white"/>
<line x1="1256" y1="79.0001" x2="628" y2="79.0001" stroke="white"/>
<line x1="1256" y1="98.625" x2="628" y2="98.6249" stroke="white"/>
<line x1="1256" y1="118.25" x2="628" y2="118.25" stroke="white"/>
<line x1="1256" y1="137.875" x2="628" y2="137.875" stroke="white"/>
<line x1="1256" y1="157.5" x2="628" y2="157.5" stroke="white"/>
<line x1="1256" y1="177.125" x2="628" y2="177.125" stroke="white"/>
<line x1="1256" y1="196.75" x2="628" y2="196.75" stroke="white"/>
<line x1="1256" y1="216.375" x2="628" y2="216.375" stroke="white"/>
<line x1="1256" y1="236" x2="628" y2="236" stroke="white"/>
<line x1="1256" y1="255.625" x2="628" y2="255.625" stroke="white"/>
<line x1="1256" y1="275.25" x2="628" y2="275.25" stroke="white"/>
<line x1="1256" y1="294.875" x2="628" y2="294.875" stroke="white"/>
<line x1="1256" y1="314.5" x2="628" y2="314.5" stroke="white"/>
<line x1="1256" y1="334.125" x2="628" y2="334.125" stroke="white"/>
<line x1="1256" y1="353.75" x2="628" y2="353.75" stroke="white"/>
<line x1="1256" y1="373.375" x2="628" y2="373.375" stroke="white"/>
<line x1="1256" y1="393" x2="628" y2="393" stroke="white"/>
<line x1="1256" y1="412.625" x2="628" y2="412.625" stroke="white"/>
<line x1="1256" y1="432.25" x2="628" y2="432.25" stroke="white"/>
<line x1="1256" y1="451.875" x2="628" y2="451.875" stroke="white"/>
<line x1="1256" y1="471.5" x2="628" y2="471.5" stroke="white"/>
<line x1="1256" y1="491.125" x2="628" y2="491.125" stroke="white"/>
<line x1="1256" y1="510.75" x2="628" y2="510.75" stroke="white"/>
<line x1="1256" y1="530.375" x2="628" y2="530.375" stroke="white"/>
<line x1="1256" y1="550" x2="628" y2="550" stroke="white"/>
<line x1="1256" y1="569.625" x2="628" y2="569.625" stroke="white"/>
<line x1="1256" y1="589.25" x2="628" y2="589.25" stroke="white"/>
<line x1="1256" y1="608.875" x2="628" y2="608.875" stroke="white"/>
</g>
</g>
<defs>
<clipPath id="clip0_2485_50">
<rect width="1200" height="628" fill="white"/>
</clipPath>
</defs>
</svg>
