<svg width="512" height="512" viewBox="0 0 512 512" fill="none" xmlns="http://www.w3.org/2000/svg">
<g clip-path="url(#clip0_2485_350)">
<rect width="512" height="512" fill="black"/>
<g opacity="0.15">
<line x1="20.125" y1="2.18557e-08" x2="20.125" y2="628" stroke="white"/>
<line x1="39.75" y1="2.18557e-08" x2="39.75" y2="628" stroke="white"/>
<line x1="59.375" y1="2.18557e-08" x2="59.375" y2="628" stroke="white"/>
<line x1="79.0001" y1="2.18557e-08" x2="79.0001" y2="628" stroke="white"/>
<line x1="98.625" y1="2.18557e-08" x2="98.625" y2="628" stroke="white"/>
<line x1="118.25" y1="2.18557e-08" x2="118.25" y2="628" stroke="white"/>
<line x1="137.875" y1="2.18557e-08" x2="137.875" y2="628" stroke="white"/>
<line x1="157.5" y1="2.18557e-08" x2="157.5" y2="628" stroke="white"/>
<line x1="177.125" y1="2.18557e-08" x2="177.125" y2="628" stroke="white"/>
<line x1="196.75" y1="2.18557e-08" x2="196.75" y2="628" stroke="white"/>
<line x1="216.375" y1="2.18557e-08" x2="216.375" y2="628" stroke="white"/>
<line x1="236" y1="2.18557e-08" x2="236" y2="628" stroke="white"/>
<line x1="255.625" y1="2.18557e-08" x2="255.625" y2="628" stroke="white"/>
<line x1="275.25" y1="2.18557e-08" x2="275.25" y2="628" stroke="white"/>
<line x1="294.875" y1="2.18557e-08" x2="294.875" y2="628" stroke="white"/>
<line x1="314.5" y1="2.18557e-08" x2="314.5" y2="628" stroke="white"/>
<line x1="334.125" y1="2.18557e-08" x2="334.125" y2="628" stroke="white"/>
<line x1="353.75" y1="2.18557e-08" x2="353.75" y2="628" stroke="white"/>
<line x1="373.375" y1="2.18557e-08" x2="373.375" y2="628" stroke="white"/>
<line x1="393" y1="2.18557e-08" x2="393" y2="628" stroke="white"/>
<line x1="412.625" y1="2.18557e-08" x2="412.625" y2="628" stroke="white"/>
<line x1="432.25" y1="2.18557e-08" x2="432.25" y2="628" stroke="white"/>
<line x1="451.875" y1="2.18557e-08" x2="451.875" y2="628" stroke="white"/>
<line x1="471.5" y1="2.18557e-08" x2="471.5" y2="628" stroke="white"/>
<line x1="491.125" y1="2.18557e-08" x2="491.125" y2="628" stroke="white"/>
<line x1="510.75" y1="2.18557e-08" x2="510.75" y2="628" stroke="white"/>
<line x1="628" y1="20.125" x2="-4.37113e-08" y2="20.1249" stroke="white"/>
<line x1="628" y1="39.75" x2="-4.37113e-08" y2="39.7499" stroke="white"/>
<line x1="628" y1="59.375" x2="-4.37113e-08" y2="59.3749" stroke="white"/>
<line x1="628" y1="79.0001" x2="-4.37113e-08" y2="79.0001" stroke="white"/>
<line x1="628" y1="98.625" x2="-4.37113e-08" y2="98.6249" stroke="white"/>
<line x1="628" y1="118.25" x2="-4.37113e-08" y2="118.25" stroke="white"/>
<line x1="628" y1="137.875" x2="-4.37113e-08" y2="137.875" stroke="white"/>
<line x1="628" y1="157.5" x2="-4.37113e-08" y2="157.5" stroke="white"/>
<line x1="628" y1="177.125" x2="-4.37113e-08" y2="177.125" stroke="white"/>
<line x1="628" y1="196.75" x2="-4.37113e-08" y2="196.75" stroke="white"/>
<line x1="628" y1="216.375" x2="-4.37113e-08" y2="216.375" stroke="white"/>
<line x1="628" y1="236" x2="-4.37113e-08" y2="236" stroke="white"/>
<line x1="628" y1="255.625" x2="-4.37113e-08" y2="255.625" stroke="white"/>
<line x1="628" y1="275.25" x2="-4.37113e-08" y2="275.25" stroke="white"/>
<line x1="628" y1="294.875" x2="-4.37113e-08" y2="294.875" stroke="white"/>
<line x1="628" y1="314.5" x2="-4.37113e-08" y2="314.5" stroke="white"/>
<line x1="628" y1="334.125" x2="-4.37113e-08" y2="334.125" stroke="white"/>
<line x1="628" y1="353.75" x2="-4.37113e-08" y2="353.75" stroke="white"/>
<line x1="628" y1="373.375" x2="-4.37113e-08" y2="373.375" stroke="white"/>
<line x1="628" y1="393" x2="-4.37113e-08" y2="393" stroke="white"/>
<line x1="628" y1="412.625" x2="-4.37113e-08" y2="412.625" stroke="white"/>
<line x1="628" y1="432.25" x2="-4.37113e-08" y2="432.25" stroke="white"/>
<line x1="628" y1="451.875" x2="-4.37113e-08" y2="451.875" stroke="white"/>
<line x1="628" y1="471.5" x2="-4.37113e-08" y2="471.5" stroke="white"/>
<line x1="628" y1="491.125" x2="-4.37113e-08" y2="491.125" stroke="white"/>
<line x1="628" y1="510.75" x2="-4.37113e-08" y2="510.75" stroke="white"/>
</g>
<rect width="256" height="256" fill="black" stroke="white" stroke-width="5"/>
<rect x="256" width="256" height="256" fill="black" stroke="white" stroke-width="5"/>
<rect y="256" width="256" height="256" fill="black" stroke="white" stroke-width="5"/>
<rect x="256" y="256" width="256" height="256" fill="black" stroke="white" stroke-width="5"/>
</g>
<defs>
<clipPath id="clip0_2485_350">
<rect width="512" height="512" fill="white"/>
</clipPath>
</defs>
</svg>
