<svg width="721" height="145" viewBox="0 0 721 145" fill="none" xmlns="http://www.w3.org/2000/svg">
<path d="M19.3896 115V103.989L27.5537 102.271V51.4062H15.4688L14.9854 59.8389H0.751953V36.7969H73.4229V59.8389H59.0283L58.5986 51.4062H46.4062V102.271L54.5703 103.989V115H19.3896Z" fill="#4CC9F0"/>
<path d="M114.565 116.128C109.159 116.128 104.181 115.143 99.6338 113.174C95.1221 111.169 91.2012 108.376 87.8711 104.795C84.541 101.214 81.9629 97.0247 80.1367 92.2266C78.3464 87.3926 77.4512 82.1468 77.4512 76.4893V75.2539C77.4512 69.6322 78.3464 64.4222 80.1367 59.624C81.9629 54.8258 84.5231 50.6364 87.8174 47.0557C91.1475 43.4749 95.0684 40.682 99.5801 38.6768C104.092 36.6715 109.051 35.6689 114.458 35.6689C119.757 35.6689 124.681 36.6715 129.229 38.6768C133.776 40.682 137.751 43.4749 141.152 47.0557C144.59 50.6364 147.257 54.8258 149.155 59.624C151.053 64.4222 152.002 69.6322 152.002 75.2539V76.4893C152.002 82.1468 151.053 87.3926 149.155 92.2266C147.257 97.0247 144.608 101.214 141.206 104.795C137.804 108.376 133.83 111.169 129.282 113.174C124.735 115.143 119.829 116.128 114.565 116.128ZM114.565 101.841C118.504 101.841 121.87 100.785 124.663 98.6719C127.456 96.5592 129.587 93.6051 131.055 89.8096C132.523 86.014 133.257 81.5739 133.257 76.4893V75.1465C133.257 70.1693 132.505 65.8008 131.001 62.041C129.533 58.2454 127.402 55.2913 124.609 53.1787C121.816 51.0661 118.433 50.0098 114.458 50.0098C110.269 50.0098 106.831 51.0482 104.146 53.125C101.496 55.2018 99.5264 58.1201 98.2373 61.8799C96.9482 65.6396 96.3037 70.0618 96.3037 75.1465V76.4893C96.3037 81.5739 96.9482 86.0319 98.2373 89.8633C99.5622 93.6589 101.567 96.613 104.253 98.7256C106.974 100.802 110.412 101.841 114.565 101.841Z" fill="#4895EF"/>
<path d="M179.233 97.9736L169.619 86.9629L208.613 48.5596L208.667 48.4521L199.805 47.8613V36.7969H236.328V47.8613L228.97 49.4189L179.233 97.9736ZM157.158 115V103.989L165.269 102.271V49.5801L157.158 47.8613V36.7969H191.533V47.8613L184.121 49.5801V102.271L191.533 103.989V115H157.158ZM201.47 115V103.989L209.312 103.398H209.419L190.62 77.6709L203.779 66.0156L231.172 102.646L239.175 103.989V115H201.47Z" fill="#4361EE"/>
<path d="M241.699 115V103.989L249.81 102.271V49.5801L241.699 47.8613V36.7969H304.165V59.3555H289.932L289.502 51.2988H268.662V67.3584H293.638V81.8066H268.662V100.444H290.522L290.952 92.0117H305.024V115H241.699Z" fill="#3F37C9"/>
<path d="M312.007 115V103.989L320.063 102.271V49.5801L312.007 47.8613V36.7969H320.063H339.238L370.605 86.8555H370.928V49.5801L360.669 47.8613V36.7969H387.632H395.742V47.8613L387.632 49.5801V115H369.048L337.09 66.0156H336.768V102.271L347.08 103.989V115H312.007Z" fill="#3A0CA3"/>
<path d="M425.391 115V103.989L433.501 102.271V49.5801L425.391 47.8613V36.7969H433.501H463.418C469.648 36.7969 475.055 37.889 479.639 40.0732C484.222 42.2575 487.749 45.3011 490.22 49.2041C492.726 53.0713 493.979 57.583 493.979 62.7393C493.979 67.8955 492.726 72.4072 490.22 76.2744C487.749 80.1416 484.222 83.1494 479.639 85.2979C475.055 87.4463 469.648 88.5205 463.418 88.5205H452.354V102.271L460.464 103.989V115H425.391ZM452.354 74.0723H463.418C467.249 74.0723 470.15 73.0339 472.119 70.957C474.124 68.8444 475.127 66.141 475.127 62.8467C475.127 59.445 474.124 56.652 472.119 54.4678C470.15 52.2835 467.249 51.1914 463.418 51.1914H452.354V74.0723Z" fill="#560BAD"/>
<path d="M496.558 115V103.989L502.036 103.184L525.347 36.7969H545.757L569.121 103.184L574.6 103.989V115H545.381V103.989L550.483 103.022L548.12 94.5361H522.983L520.728 103.022L525.83 103.989V115H496.558ZM526.958 81.3232H544.092L536.465 57.6367L535.605 54.8975H535.283L534.37 57.9053L526.958 81.3232Z" fill="#7209B7"/>
<path d="M615.098 116.128C607.005 116.128 600.148 114.552 594.526 111.401C588.94 108.25 584.679 103.882 581.743 98.2959C578.807 92.6742 577.339 86.1751 577.339 78.7988V75.2539C577.339 67.4837 578.789 60.6266 581.689 54.6826C584.59 48.7386 588.797 44.0837 594.312 40.7178C599.826 37.3519 606.486 35.6689 614.292 35.6689C619.627 35.6689 624.98 36.4925 630.352 38.1396C635.723 39.751 640.449 42.3112 644.531 45.8203V64.1357H631.104L628.257 54.1992C627.039 52.946 625.303 51.9076 623.047 51.084C620.827 50.2604 618.32 49.8486 615.527 49.8486C611.23 49.8486 607.632 50.9229 604.731 53.0713C601.831 55.1839 599.647 58.138 598.179 61.9336C596.746 65.7292 596.03 70.1335 596.03 75.1465V78.7988C596.03 83.5254 596.782 87.6253 598.286 91.0986C599.826 94.5719 602.064 97.2575 605 99.1553C607.936 101.053 611.553 102.002 615.85 102.002C618.105 102.002 620.343 101.769 622.563 101.304C624.784 100.838 626.52 100.319 627.773 99.7461V89.6484L618.965 88.5742V75.5762H646.68V108.018C642.454 110.739 637.674 112.78 632.339 114.141C627.039 115.465 621.292 116.128 615.098 116.128Z" fill="#B5179E"/>
<path d="M652.695 115V103.989L660.806 102.271V49.5801L652.695 47.8613V36.7969H715.161V59.3555H700.928L700.498 51.2988H679.658V67.3584H704.634V81.8066H679.658V100.444H701.519L701.948 92.0117H716.021V115H652.695Z" fill="#F72585"/>
<path d="M19.3896 115H9.38965V125H19.3896V115ZM19.3896 103.989L17.3295 94.2038L9.38965 95.8753V103.989H19.3896ZM27.5537 102.271L29.6138 112.056L37.5537 110.384V102.271H27.5537ZM27.5537 51.4062H37.5537V41.4062H27.5537V51.4062ZM15.4688 51.4062V41.4062H6.02558L5.48514 50.8339L15.4688 51.4062ZM14.9854 59.8389V69.8389H24.4285L24.969 60.4112L14.9854 59.8389ZM0.751953 59.8389H-9.24805V69.8389H0.751953V59.8389ZM0.751953 36.7969V26.7969H-9.24805V36.7969H0.751953ZM73.4229 36.7969H83.4229V26.7969H73.4229V36.7969ZM73.4229 59.8389V69.8389H83.4229V59.8389H73.4229ZM59.0283 59.8389L49.0413 60.3478L49.5249 69.8389H59.0283V59.8389ZM58.5986 51.4062L68.5857 50.8974L68.1021 41.4062H58.5986V51.4062ZM46.4062 51.4062V41.4062H36.4062V51.4062H46.4062ZM46.4062 102.271H36.4062V110.384L44.3461 112.056L46.4062 102.271ZM54.5703 103.989H64.5703V95.8753L56.6304 94.2038L54.5703 103.989ZM54.5703 115V125H64.5703V115H54.5703ZM29.3896 115V103.989H9.38965V115H29.3896ZM21.4498 113.775L29.6138 112.056L25.4936 92.485L17.3295 94.2038L21.4498 113.775ZM37.5537 102.271V51.4062H17.5537V102.271H37.5537ZM27.5537 41.4062H15.4688V61.4062H27.5537V41.4062ZM5.48514 50.8339L5.00174 59.2666L24.969 60.4112L25.4524 51.9786L5.48514 50.8339ZM14.9854 49.8389H0.751953V69.8389H14.9854V49.8389ZM10.752 59.8389V36.7969H-9.24805V59.8389H10.752ZM0.751953 46.7969H73.4229V26.7969H0.751953V46.7969ZM63.4229 36.7969V59.8389H83.4229V36.7969H63.4229ZM73.4229 49.8389H59.0283V69.8389H73.4229V49.8389ZM69.0154 59.33L68.5857 50.8974L48.6116 51.9151L49.0413 60.3478L69.0154 59.33ZM58.5986 41.4062H46.4062V61.4062H58.5986V41.4062ZM36.4062 51.4062V102.271H56.4062V51.4062H36.4062ZM44.3461 112.056L52.5102 113.775L56.6304 94.2038L48.4664 92.485L44.3461 112.056ZM44.5703 103.989V115H64.5703V103.989H44.5703ZM54.5703 105H19.3896V125H54.5703V105ZM99.6338 113.174L95.5724 122.312L95.616 122.331L95.6597 122.35L99.6338 113.174ZM87.8711 104.795L80.5484 111.605L87.8711 104.795ZM80.1367 92.2266L70.7592 95.6997L70.7748 95.7417L70.7907 95.7836L80.1367 92.2266ZM80.1367 59.624L70.7907 56.067L70.7791 56.0975L70.7677 56.1281L80.1367 59.624ZM87.8174 47.0557L80.4947 40.2455L80.4763 40.2653L80.4581 40.2851L87.8174 47.0557ZM129.229 38.6768L125.194 47.8267L129.229 38.6768ZM141.152 47.0557L133.902 53.9432L133.92 53.9621L133.938 53.981L141.152 47.0557ZM149.155 92.2266L158.454 95.9045L158.459 95.8928L158.464 95.881L149.155 92.2266ZM129.282 113.174L133.256 122.35L133.287 122.337L133.317 122.324L129.282 113.174ZM131.055 89.8096L121.728 86.2021L131.055 89.8096ZM131.001 62.041L121.674 65.6485L121.695 65.7018L121.716 65.7549L131.001 62.041ZM104.146 53.125L98.028 45.2145L98.0023 45.2344L97.9767 45.2544L104.146 53.125ZM98.2373 89.8633L88.7594 93.0521L88.7774 93.1056L88.7959 93.1588L98.2373 89.8633ZM104.253 98.7256L98.0701 106.585L98.1278 106.631L98.1862 106.675L104.253 98.7256ZM114.565 106.128C110.4 106.128 106.791 105.376 103.608 103.997L95.6597 122.35C101.572 124.911 107.917 126.128 114.565 126.128V106.128ZM103.695 104.036C100.404 102.573 97.5959 100.568 95.1938 97.9848L80.5484 111.605C84.8065 116.184 89.8399 119.764 95.5724 122.312L103.695 104.036ZM95.1938 97.9848C92.7849 95.3946 90.8736 92.3241 89.4827 88.6695L70.7907 95.7836C73.0521 101.725 76.2971 107.034 80.5484 111.605L95.1938 97.9848ZM89.5142 88.7534C88.1739 85.1345 87.4512 81.0768 87.4512 76.4893H67.4512C67.4512 83.2168 68.5188 89.6507 70.7592 95.6997L89.5142 88.7534ZM87.4512 76.4893V75.2539H67.4512V76.4893H87.4512ZM87.4512 75.2539C87.4512 70.7092 88.1716 66.6956 89.5057 63.1199L70.7677 56.1281C68.5212 62.1488 67.4512 68.5551 67.4512 75.2539H87.4512ZM89.4827 63.1811C90.8821 59.5042 92.7896 56.4209 95.1767 53.8262L80.4581 40.2851C76.2566 44.8519 73.0437 50.1475 70.7907 56.067L89.4827 63.1811ZM95.1401 53.8658C97.5422 51.2829 100.35 49.2775 103.641 47.8149L95.5187 29.5386C89.7862 32.0864 84.7528 35.6669 80.4947 40.2455L95.1401 53.8658ZM103.641 47.8149C106.757 46.4301 110.316 45.6689 114.458 45.6689V25.6689C107.786 25.6689 101.426 26.913 95.5187 29.5386L103.641 47.8149ZM114.458 45.6689C118.462 45.6689 122.001 46.4186 125.194 47.8267L133.263 29.5268C127.361 26.9245 121.053 25.6689 114.458 25.6689V45.6689ZM125.194 47.8267C128.538 49.3014 131.418 51.3281 133.902 53.9432L148.402 40.1682C144.083 35.6218 139.014 32.0625 133.263 29.5268L125.194 47.8267ZM133.938 53.981C136.441 56.5879 138.417 59.6628 139.856 63.302L158.454 55.946C156.098 49.9889 152.739 44.6849 148.366 40.1303L133.938 53.981ZM139.856 63.302C141.251 66.8284 142.002 70.7782 142.002 75.2539H162.002C162.002 68.4862 160.855 62.016 158.454 55.946L139.856 63.302ZM142.002 75.2539V76.4893H162.002V75.2539H142.002ZM142.002 76.4893C142.002 81.0084 141.248 85.0025 139.847 88.5722L158.464 95.881C160.858 89.7827 162.002 83.2852 162.002 76.4893H142.002ZM139.856 88.5486C138.408 92.2097 136.436 95.2967 133.956 97.9074L148.456 111.682C152.779 107.132 156.107 101.84 158.454 95.9045L139.856 88.5486ZM133.956 97.9074C131.472 100.522 128.592 102.549 125.248 104.024L133.317 122.324C139.067 119.788 144.137 116.229 148.456 111.682L133.956 97.9074ZM125.308 103.997C122.092 105.39 118.548 106.128 114.565 106.128V126.128C121.11 126.128 127.377 124.896 133.256 122.35L125.308 103.997ZM114.565 111.841C120.397 111.841 125.952 110.236 130.696 106.647L118.63 90.6965C117.789 91.3332 116.612 91.8408 114.565 91.8408V111.841ZM130.696 106.647C135.198 103.242 138.353 98.6606 140.381 93.417L121.728 86.2021C120.82 88.5497 119.714 89.8769 118.63 90.6965L130.696 106.647ZM140.381 93.417C142.39 88.2236 143.257 82.5114 143.257 76.4893H123.257C123.257 80.6364 122.655 83.8044 121.728 86.2021L140.381 93.417ZM143.257 76.4893V75.1465H123.257V76.4893H143.257ZM143.257 75.1465C143.257 69.1796 142.357 63.5048 140.286 58.3271L121.716 65.7549C122.653 68.0968 123.257 71.1589 123.257 75.1465H143.257ZM140.328 58.4335C138.299 53.19 135.144 48.609 130.642 45.2033L118.577 61.1541C119.66 61.9737 120.766 63.3009 121.674 65.6485L140.328 58.4335ZM130.642 45.2033C125.882 41.6027 120.303 40.0098 114.458 40.0098V60.0098C116.563 60.0098 117.751 60.5295 118.577 61.1541L130.642 45.2033ZM114.458 40.0098C108.585 40.0098 102.843 41.491 98.028 45.2145L110.263 61.0355C110.819 60.6054 111.953 60.0098 114.458 60.0098V40.0098ZM97.9767 45.2544C93.5488 48.7249 90.5785 53.3847 88.7778 58.6366L107.697 65.1231C108.474 62.8556 109.443 61.6787 110.314 60.9956L97.9767 45.2544ZM88.7778 58.6366C87.0469 63.6853 86.3037 69.2512 86.3037 75.1465H106.304C106.304 70.8725 106.85 67.594 107.697 65.1231L88.7778 58.6366ZM86.3037 75.1465V76.4893H106.304V75.1465H86.3037ZM86.3037 76.4893C86.3037 82.3912 87.0486 87.9674 88.7594 93.0521L107.715 86.6744C106.848 84.0964 106.304 80.7566 106.304 76.4893H86.3037ZM88.7959 93.1588C90.6366 98.4322 93.6372 103.098 98.0701 106.585L110.436 90.866C109.498 90.128 108.488 88.8855 107.679 86.5677L88.7959 93.1588ZM98.1862 106.675C102.997 110.347 108.7 111.841 114.565 111.841V91.8408C112.124 91.8408 110.951 91.2582 110.32 90.7761L98.1862 106.675ZM179.233 97.9736L171.701 104.551L178.654 112.514L186.219 105.129L179.233 97.9736ZM169.619 86.9629L162.602 79.8381L155.892 86.4463L162.087 93.5401L169.619 86.9629ZM208.613 48.5596L215.63 55.6844L216.814 54.5182L217.558 53.0317L208.613 48.5596ZM208.667 48.4521L217.611 52.9243L224.336 39.4746L209.332 38.4743L208.667 48.4521ZM199.805 47.8613H189.805V57.2169L199.139 57.8392L199.805 47.8613ZM199.805 36.7969V26.7969H189.805V36.7969H199.805ZM236.328 36.7969H246.328V26.7969H236.328V36.7969ZM236.328 47.8613L238.399 57.6445L246.328 55.9661V47.8613H236.328ZM228.97 49.4189L226.899 39.6357L224.06 40.2366L221.984 42.2634L228.97 49.4189ZM157.158 115H147.158V125H157.158V115ZM157.158 103.989L155.085 94.2065L147.158 95.8864V103.989H157.158ZM165.269 102.271L167.342 112.053L175.269 110.373V102.271H165.269ZM165.269 49.5801H175.269V41.4772L167.342 39.7973L165.269 49.5801ZM157.158 47.8613H147.158V55.9642L155.085 57.6441L157.158 47.8613ZM157.158 36.7969V26.7969H147.158V36.7969H157.158ZM191.533 36.7969H201.533V26.7969H191.533V36.7969ZM191.533 47.8613L193.792 57.6029L201.533 55.8078V47.8613H191.533ZM184.121 49.5801L181.862 39.8386L174.121 41.6336V49.5801H184.121ZM184.121 102.271H174.121V110.217L181.862 112.012L184.121 102.271ZM191.533 103.989H201.533V96.0428L193.792 94.2477L191.533 103.989ZM191.533 115V125H201.533V115H191.533ZM201.47 115H191.47V125H201.47V115ZM201.47 103.989L200.718 94.0175L191.47 94.7143V103.989H201.47ZM209.312 103.398V93.3984H208.935L208.56 93.4267L209.312 103.398ZM209.419 103.398V113.398H229.111L217.493 97.4987L209.419 103.398ZM190.62 77.6709L183.99 70.185L177.175 76.2207L182.546 83.5706L190.62 77.6709ZM203.779 66.0156L211.788 60.0269L205.282 51.3265L197.149 58.5297L203.779 66.0156ZM231.172 102.646L223.163 108.635L225.564 111.845L229.517 112.509L231.172 102.646ZM239.175 103.989H249.175V95.5273L240.83 94.1271L239.175 103.989ZM239.175 115V125H249.175V115H239.175ZM186.766 91.3964L177.152 80.3857L162.087 93.5401L171.701 104.551L186.766 91.3964ZM176.636 94.0877L215.63 55.6844L201.596 41.4347L162.602 79.8381L176.636 94.0877ZM217.558 53.0317L217.611 52.9243L199.723 43.98L199.669 44.0874L217.558 53.0317ZM209.332 38.4743L200.47 37.8835L199.139 57.8392L208.002 58.43L209.332 38.4743ZM209.805 47.8613V36.7969H189.805V47.8613H209.805ZM199.805 46.7969H236.328V26.7969H199.805V46.7969ZM226.328 36.7969V47.8613H246.328V36.7969H226.328ZM234.257 38.0781L226.899 39.6357L231.041 59.2022L238.399 57.6445L234.257 38.0781ZM221.984 42.2634L172.248 90.8181L186.219 105.129L235.955 56.5745L221.984 42.2634ZM167.158 115V103.989H147.158V115H167.158ZM159.231 113.772L167.342 112.053L163.195 92.4878L155.085 94.2065L159.231 113.772ZM175.269 102.271V49.5801H155.269V102.271H175.269ZM167.342 39.7973L159.231 38.0786L155.085 57.6441L163.195 59.3628L167.342 39.7973ZM167.158 47.8613V36.7969H147.158V47.8613H167.158ZM157.158 46.7969H191.533V26.7969H157.158V46.7969ZM181.533 36.7969V47.8613H201.533V36.7969H181.533ZM189.274 38.1198L181.862 39.8386L186.38 59.3216L193.792 57.6029L189.274 38.1198ZM174.121 49.5801V102.271H194.121V49.5801H174.121ZM181.862 112.012L189.274 113.731L193.792 94.2477L186.38 92.529L181.862 112.012ZM181.533 103.989V115H201.533V103.989H181.533ZM191.533 105H157.158V125H191.533V105ZM211.47 115V103.989H191.47V115H211.47ZM202.221 113.961L210.063 113.37L208.56 93.4267L200.718 94.0175L202.221 113.961ZM209.312 113.398H209.419V93.3984H209.312V113.398ZM217.493 97.4987L198.694 71.7712L182.546 83.5706L201.345 109.298L217.493 97.4987ZM197.25 85.1568L210.41 73.5015L197.149 58.5297L183.99 70.185L197.25 85.1568ZM195.771 72.0043L223.163 108.635L239.18 96.6578L211.788 60.0269L195.771 72.0043ZM229.517 112.509L237.52 113.851L240.83 94.1271L232.827 92.7843L229.517 112.509ZM229.175 103.989V115H249.175V103.989H229.175ZM239.175 105H201.47V125H239.175V105ZM241.699 115H231.699V125H241.699V115ZM241.699 103.989L239.626 94.2065L231.699 95.8864V103.989H241.699ZM249.81 102.271L251.883 112.053L259.81 110.373V102.271H249.81ZM249.81 49.5801H259.81V41.4772L251.883 39.7973L249.81 49.5801ZM241.699 47.8613H231.699V55.9642L239.626 57.6441L241.699 47.8613ZM241.699 36.7969V26.7969H231.699V36.7969H241.699ZM304.165 36.7969H314.165V26.7969H304.165V36.7969ZM304.165 59.3555V69.3555H314.165V59.3555H304.165ZM289.932 59.3555L279.946 59.888L280.451 69.3555H289.932V59.3555ZM289.502 51.2988L299.488 50.7663L298.983 41.2988H289.502V51.2988ZM268.662 51.2988V41.2988H258.662V51.2988H268.662ZM268.662 67.3584H258.662V77.3584H268.662V67.3584ZM293.638 67.3584H303.638V57.3584H293.638V67.3584ZM293.638 81.8066V91.8066H303.638V81.8066H293.638ZM268.662 81.8066V71.8066H258.662V81.8066H268.662ZM268.662 100.444H258.662V110.444H268.662V100.444ZM290.522 100.444V110.444H300.026L300.51 100.953L290.522 100.444ZM290.952 92.0117V82.0117H281.449L280.965 91.5028L290.952 92.0117ZM305.024 92.0117H315.024V82.0117H305.024V92.0117ZM305.024 115V125H315.024V115H305.024ZM251.699 115V103.989H231.699V115H251.699ZM243.772 113.772L251.883 112.053L247.736 92.4878L239.626 94.2065L243.772 113.772ZM259.81 102.271V49.5801H239.81V102.271H259.81ZM251.883 39.7973L243.772 38.0786L239.626 57.6441L247.736 59.3628L251.883 39.7973ZM251.699 47.8613V36.7969H231.699V47.8613H251.699ZM241.699 46.7969H304.165V26.7969H241.699V46.7969ZM294.165 36.7969V59.3555H314.165V36.7969H294.165ZM304.165 49.3555H289.932V69.3555H304.165V49.3555ZM299.917 58.8229L299.488 50.7663L279.516 51.8314L279.946 59.888L299.917 58.8229ZM289.502 41.2988H268.662V61.2988H289.502V41.2988ZM258.662 51.2988V67.3584H278.662V51.2988H258.662ZM268.662 77.3584H293.638V57.3584H268.662V77.3584ZM283.638 67.3584V81.8066H303.638V67.3584H283.638ZM293.638 71.8066H268.662V91.8066H293.638V71.8066ZM258.662 81.8066V100.444H278.662V81.8066H258.662ZM268.662 110.444H290.522V90.4443H268.662V110.444ZM300.51 100.953L300.939 92.5206L280.965 91.5028L280.535 99.9354L300.51 100.953ZM290.952 102.012H305.024V82.0117H290.952V102.012ZM295.024 92.0117V115H315.024V92.0117H295.024ZM305.024 105H241.699V125H305.024V105ZM312.007 115H302.007V125H312.007V115ZM312.007 103.989L309.92 94.2093L302.007 95.8976V103.989H312.007ZM320.063 102.271L322.15 112.05L330.063 110.362V102.271H320.063ZM320.063 49.5801H330.063V41.4884L322.15 39.8001L320.063 49.5801ZM312.007 47.8613H302.007V55.953L309.92 57.6413L312.007 47.8613ZM312.007 36.7969V26.7969H302.007V36.7969H312.007ZM339.238 36.7969L347.712 31.4871L344.773 26.7969H339.238V36.7969ZM370.605 86.8555L362.132 92.1653L365.071 96.8555H370.605V86.8555ZM370.928 86.8555V96.8555H380.928V86.8555H370.928ZM370.928 49.5801H380.928V41.1161L372.58 39.7175L370.928 49.5801ZM360.669 47.8613H350.669V56.3253L359.017 57.7239L360.669 47.8613ZM360.669 36.7969V26.7969H350.669V36.7969H360.669ZM395.742 36.7969H405.742V26.7969H395.742V36.7969ZM395.742 47.8613L397.815 57.6441L405.742 55.9642V47.8613H395.742ZM387.632 49.5801L385.559 39.7973L377.632 41.4772V49.5801H387.632ZM387.632 115V125H397.632V115H387.632ZM369.048 115L360.673 120.464L363.632 125H369.048V115ZM337.09 66.0156L345.465 60.5515L342.506 56.0156H337.09V66.0156ZM336.768 66.0156V56.0156H326.768V66.0156H336.768ZM336.768 102.271H326.768V110.742L335.124 112.134L336.768 102.271ZM347.08 103.989H357.08V95.518L348.724 94.1253L347.08 103.989ZM347.08 115V125H357.08V115H347.08ZM322.007 115V103.989H302.007V115H322.007ZM314.093 113.769L322.15 112.05L317.977 92.4906L309.92 94.2093L314.093 113.769ZM330.063 102.271V49.5801H310.063V102.271H330.063ZM322.15 39.8001L314.093 38.0814L309.92 57.6413L317.977 59.36L322.15 39.8001ZM322.007 47.8613V36.7969H302.007V47.8613H322.007ZM312.007 46.7969H320.063V26.7969H312.007V46.7969ZM320.063 46.7969H339.238V26.7969H320.063V46.7969ZM330.764 42.1067L362.132 92.1653L379.079 81.5457L347.712 31.4871L330.764 42.1067ZM370.605 96.8555H370.928V76.8555H370.605V96.8555ZM380.928 86.8555V49.5801H360.928V86.8555H380.928ZM372.58 39.7175L362.321 37.9988L359.017 57.7239L369.275 59.4426L372.58 39.7175ZM370.669 47.8613V36.7969H350.669V47.8613H370.669ZM360.669 46.7969H387.632V26.7969H360.669V46.7969ZM387.632 46.7969H395.742V26.7969H387.632V46.7969ZM385.742 36.7969V47.8613H405.742V36.7969H385.742ZM393.669 38.0786L385.559 39.7973L389.705 59.3628L397.815 57.6441L393.669 38.0786ZM377.632 49.5801V115H397.632V49.5801H377.632ZM387.632 105H369.048V125H387.632V105ZM377.423 109.536L345.465 60.5515L328.715 71.4797L360.673 120.464L377.423 109.536ZM337.09 56.0156H336.768V76.0156H337.09V56.0156ZM326.768 66.0156V102.271H346.768V66.0156H326.768ZM335.124 112.134L345.436 113.853L348.724 94.1253L338.412 92.4066L335.124 112.134ZM337.08 103.989V115H357.08V103.989H337.08ZM347.08 105H312.007V125H347.08V105ZM425.391 115H415.391V125H425.391V115ZM425.391 103.989L423.317 94.2065L415.391 95.8864V103.989H425.391ZM433.501 102.271L435.574 112.053L443.501 110.373V102.271H433.501ZM433.501 49.5801H443.501V41.4772L435.574 39.7973L433.501 49.5801ZM425.391 47.8613H415.391V55.9642L423.317 57.6441L425.391 47.8613ZM425.391 36.7969V26.7969H415.391V36.7969H425.391ZM479.639 40.0732L483.941 31.0459L479.639 40.0732ZM490.22 49.2041L481.77 54.5528L481.799 54.5981L481.828 54.6431L490.22 49.2041ZM490.22 76.2744L481.828 70.8355L481.81 70.8629L481.793 70.8905L490.22 76.2744ZM479.639 85.2979L483.883 94.3524L479.639 85.2979ZM452.354 88.5205V78.5205H442.354V88.5205H452.354ZM452.354 102.271H442.354V110.373L450.28 112.053L452.354 102.271ZM460.464 103.989H470.464V95.8864L462.537 94.2065L460.464 103.989ZM460.464 115V125H470.464V115H460.464ZM452.354 74.0723H442.354V84.0723H452.354V74.0723ZM472.119 70.957L464.866 64.0728L464.863 64.0761L472.119 70.957ZM472.119 54.4678L464.692 61.1641L464.722 61.1975L464.753 61.2305L472.119 54.4678ZM452.354 51.1914V41.1914H442.354V51.1914H452.354ZM435.391 115V103.989H415.391V115H435.391ZM427.464 113.772L435.574 112.053L431.428 92.4878L423.317 94.2065L427.464 113.772ZM443.501 102.271V49.5801H423.501V102.271H443.501ZM435.574 39.7973L427.464 38.0786L423.317 57.6441L431.428 59.3628L435.574 39.7973ZM435.391 47.8613V36.7969H415.391V47.8613H435.391ZM425.391 46.7969H433.501V26.7969H425.391V46.7969ZM433.501 46.7969H463.418V26.7969H433.501V46.7969ZM463.418 46.7969C468.491 46.7969 472.367 47.6853 475.337 49.1005L483.941 31.0459C477.744 28.0926 470.806 26.7969 463.418 26.7969V46.7969ZM475.337 49.1005C478.393 50.5572 480.407 52.3983 481.77 54.5528L498.669 43.8554C495.092 38.2039 490.051 33.9578 483.941 31.0459L475.337 49.1005ZM481.828 54.6431C483.163 56.7024 483.979 59.2761 483.979 62.7393H503.979C503.979 55.8899 502.29 49.4402 498.611 43.7651L481.828 54.6431ZM483.979 62.7393C483.979 66.2024 483.163 68.7761 481.828 70.8355L498.611 81.7134C502.29 76.0383 503.979 69.5886 503.979 62.7393H483.979ZM481.793 70.8905C480.444 73.0011 478.447 74.8123 475.394 76.2433L483.883 94.3524C489.997 91.4865 495.054 87.2821 498.647 81.6583L481.793 70.8905ZM475.394 76.2433C472.41 77.6424 468.513 78.5205 463.418 78.5205V98.5205C470.784 98.5205 477.701 97.2502 483.883 94.3524L475.394 76.2433ZM463.418 78.5205H452.354V98.5205H463.418V78.5205ZM442.354 88.5205V102.271H462.354V88.5205H442.354ZM450.28 112.053L458.391 113.772L462.537 94.2065L454.427 92.4878L450.28 112.053ZM450.464 103.989V115H470.464V103.989H450.464ZM460.464 105H425.391V125H460.464V105ZM452.354 84.0723H463.418V64.0723H452.354V84.0723ZM463.418 84.0723C469.027 84.0723 474.942 82.513 479.375 77.8379L464.863 64.0761C464.934 64.0014 465.012 63.9391 465.079 63.8961C465.143 63.8547 465.16 63.8559 465.096 63.8787C464.955 63.9293 464.454 64.0723 463.418 64.0723V84.0723ZM479.372 77.8413C483.376 73.623 485.127 68.3401 485.127 62.8467H465.127C465.127 63.474 465.033 63.7755 464.999 63.8678C464.973 63.9388 464.948 63.9867 464.866 64.0728L479.372 77.8413ZM485.127 62.8467C485.127 57.3356 483.434 52.006 479.486 47.7051L464.753 61.2305C464.815 61.2981 465.127 61.5544 465.127 62.8467H485.127ZM479.546 47.7714C475.147 42.8929 469.173 41.1914 463.418 41.1914V61.1914C464.404 61.1914 464.85 61.3341 464.943 61.369C464.984 61.3844 464.954 61.3776 464.885 61.3313C464.815 61.2837 464.746 61.2237 464.692 61.1641L479.546 47.7714ZM463.418 41.1914H452.354V61.1914H463.418V41.1914ZM442.354 51.1914V74.0723H462.354V51.1914H442.354ZM496.558 115H486.558V125H496.558V115ZM496.558 103.989L495.103 94.0957L486.558 95.3523V103.989H496.558ZM502.036 103.184L503.491 113.077L509.469 112.198L511.471 106.497L502.036 103.184ZM525.347 36.7969V26.7969H518.259L515.911 33.4839L525.347 36.7969ZM545.757 36.7969L555.19 33.4771L552.839 26.7969H545.757V36.7969ZM569.121 103.184L559.688 106.503L561.693 112.199L567.666 113.077L569.121 103.184ZM574.6 103.989H584.6V95.3523L576.055 94.0957L574.6 103.989ZM574.6 115V125H584.6V115H574.6ZM545.381 115H535.381V125H545.381V115ZM545.381 103.989L543.519 94.1641L535.381 95.7061V103.989H545.381ZM550.483 103.022L552.345 112.848L563.036 110.822L560.117 100.34L550.483 103.022ZM548.12 94.5361L557.754 91.8534L555.716 84.5361H548.12V94.5361ZM522.983 94.5361V84.5361H515.294L513.319 91.9671L522.983 94.5361ZM520.728 103.022L511.063 100.453L508.301 110.846L518.866 112.848L520.728 103.022ZM525.83 103.989H535.83V95.7061L527.692 94.1641L525.83 103.989ZM525.83 115V125H535.83V115H525.83ZM526.958 81.3232L517.424 78.3057L513.304 91.3232H526.958V81.3232ZM544.092 81.3232V91.3232H557.817L553.611 78.2583L544.092 81.3232ZM536.465 57.6367L526.923 60.6301L526.935 60.666L526.946 60.7017L536.465 57.6367ZM535.605 54.8975L545.147 51.9041L542.949 44.8975H535.605V54.8975ZM535.283 54.8975V44.8975H527.868L525.714 51.9926L535.283 54.8975ZM534.37 57.9053L543.904 60.9229L543.922 60.8666L543.939 60.8101L534.37 57.9053ZM506.558 115V103.989H486.558V115H506.558ZM498.013 113.883L503.491 113.077L500.581 93.29L495.103 94.0957L498.013 113.883ZM511.471 106.497L534.782 40.1099L515.911 33.4839L492.601 99.8706L511.471 106.497ZM525.347 46.7969H545.757V26.7969H525.347V46.7969ZM536.324 40.1167L559.688 106.503L578.554 99.8638L555.19 33.4771L536.324 40.1167ZM567.666 113.077L573.145 113.883L576.055 94.0957L570.576 93.29L567.666 113.077ZM564.6 103.989V115H584.6V103.989H564.6ZM574.6 105H545.381V125H574.6V105ZM555.381 115V103.989H535.381V115H555.381ZM547.242 113.814L552.345 112.848L548.622 93.1973L543.519 94.1641L547.242 113.814ZM560.117 100.34L557.754 91.8534L538.487 97.2189L540.85 105.705L560.117 100.34ZM548.12 84.5361H522.983V104.536H548.12V84.5361ZM513.319 91.9671L511.063 100.453L530.392 105.591L532.648 97.1051L513.319 91.9671ZM518.866 112.848L523.968 113.814L527.692 94.1641L522.589 93.1973L518.866 112.848ZM515.83 103.989V115H535.83V103.989H515.83ZM525.83 105H496.558V125H525.83V105ZM526.958 91.3232H544.092V71.3232H526.958V91.3232ZM553.611 78.2583L545.984 54.5717L526.946 60.7017L534.573 84.3882L553.611 78.2583ZM546.006 54.6433L545.147 51.9041L526.064 57.8909L526.923 60.6301L546.006 54.6433ZM535.605 44.8975H535.283V64.8975H535.605V44.8975ZM525.714 51.9926L524.801 55.0005L543.939 60.8101L544.852 57.8023L525.714 51.9926ZM524.836 54.8877L517.424 78.3057L536.492 84.3408L543.904 60.9229L524.836 54.8877ZM594.526 111.401L589.613 120.111L589.625 120.118L589.637 120.125L594.526 111.401ZM581.743 98.2959L572.879 102.925L572.885 102.937L572.892 102.949L581.743 98.2959ZM630.352 38.1396L627.42 47.7002L627.449 47.7091L627.478 47.7179L630.352 38.1396ZM644.531 45.8203H654.531V41.2297L651.05 38.2371L644.531 45.8203ZM644.531 64.1357V74.1357H654.531V64.1357H644.531ZM631.104 64.1357L621.49 66.8898L623.566 74.1357H631.104V64.1357ZM628.257 54.1992L637.87 51.4451L637.179 49.0319L635.43 47.2314L628.257 54.1992ZM623.047 51.084L619.569 60.4596L619.593 60.4687L619.617 60.4776L623.047 51.084ZM604.731 53.0713L610.619 61.1543L610.652 61.1307L610.684 61.1069L604.731 53.0713ZM598.179 61.9336L588.852 58.3261L588.837 58.3645L588.823 58.403L598.179 61.9336ZM598.286 91.0986L589.109 95.0721L589.127 95.1117L589.144 95.1513L598.286 91.0986ZM627.773 99.7461L631.931 108.841L637.773 106.17V99.7461H627.773ZM627.773 89.6484H637.773V80.7939L628.984 79.722L627.773 89.6484ZM618.965 88.5742H608.965V97.4288L617.754 98.5007L618.965 88.5742ZM618.965 75.5762V65.5762H608.965V75.5762H618.965ZM646.68 75.5762H656.68V65.5762H646.68V75.5762ZM646.68 108.018L652.094 116.425L656.68 113.472V108.018H646.68ZM632.339 114.141L634.764 123.842L634.787 123.836L634.81 123.83L632.339 114.141ZM615.098 106.128C608.287 106.128 603.208 104.804 599.416 102.678L589.637 120.125C597.088 124.301 605.724 126.128 615.098 126.128V106.128ZM599.44 102.692C595.5 100.47 592.62 97.4968 590.595 93.6431L572.892 102.949C576.738 110.267 582.38 116.031 589.613 120.111L599.44 102.692ZM590.607 93.6664C588.53 89.6902 587.339 84.8264 587.339 78.7988H567.339C567.339 87.5239 569.084 95.6581 572.879 102.925L590.607 93.6664ZM587.339 78.7988V75.2539H567.339V78.7988H587.339ZM587.339 75.2539C587.339 68.7392 588.55 63.427 590.677 59.0679L572.702 50.2973C569.029 57.8263 567.339 66.2282 567.339 75.2539H587.339ZM590.677 59.0679C592.761 54.7964 595.677 51.6 599.522 49.2533L589.102 32.1822C581.917 36.5673 576.419 42.6808 572.702 50.2973L590.677 59.0679ZM599.522 49.2533C603.168 47.0274 607.94 45.6689 614.292 45.6689V25.6689C605.032 25.6689 596.483 27.6764 589.102 32.1822L599.522 49.2533ZM614.292 45.6689C618.582 45.6689 622.948 46.3289 627.42 47.7002L633.283 28.5791C627.013 26.6561 620.672 25.6689 614.292 25.6689V45.6689ZM627.478 47.7179C631.565 48.944 635.037 50.8455 638.012 53.4035L651.05 38.2371C645.862 33.7769 639.88 30.558 633.225 28.5614L627.478 47.7179ZM634.531 45.8203V64.1357H654.531V45.8203H634.531ZM644.531 54.1357H631.104V74.1357H644.531V54.1357ZM640.717 61.3817L637.87 51.4451L618.644 56.9533L621.49 66.8898L640.717 61.3817ZM635.43 47.2314C632.846 44.5721 629.647 42.8479 626.476 41.6904L619.617 60.4776C620.959 60.9672 621.232 61.3198 621.084 61.1671L635.43 47.2314ZM626.525 41.7083C623.012 40.405 619.299 39.8486 615.527 39.8486V59.8486C617.342 59.8486 618.642 60.1158 619.569 60.4596L626.525 41.7083ZM615.527 39.8486C609.507 39.8486 603.711 41.3822 598.779 45.0357L610.684 61.1069C611.552 60.4635 612.954 59.8486 615.527 59.8486V39.8486ZM598.844 44.9882C594.19 48.3781 590.917 52.9866 588.852 58.3261L607.505 65.5411C608.376 63.2894 609.472 61.9897 610.619 61.1543L598.844 44.9882ZM588.823 58.403C586.877 63.5579 586.03 69.2017 586.03 75.1465H606.03C606.03 71.0652 606.615 67.9004 607.535 65.4642L588.823 58.403ZM586.03 75.1465V78.7988H606.03V75.1465H586.03ZM586.03 78.7988C586.03 84.5629 586.945 90.0739 589.109 95.0721L607.463 87.1252C606.619 85.1767 606.03 82.4879 606.03 78.7988H586.03ZM589.144 95.1513C591.401 100.243 594.859 104.508 599.572 107.554L610.428 90.7568C609.268 90.0071 608.251 88.9011 607.428 87.046L589.144 95.1513ZM599.572 107.554C604.461 110.714 610.07 112.002 615.85 112.002V92.002C613.036 92.002 611.411 91.3923 610.428 90.7568L599.572 107.554ZM615.85 112.002C618.799 112.002 621.724 111.697 624.616 111.091L620.511 91.5165C618.962 91.8413 617.412 92.002 615.85 92.002V112.002ZM624.616 111.091C627.16 110.557 629.712 109.855 631.931 108.841L623.616 90.6513C623.328 90.7829 622.407 91.119 620.511 91.5165L624.616 111.091ZM637.773 99.7461V89.6484H617.773V99.7461H637.773ZM628.984 79.722L620.175 78.6478L617.754 98.5007L626.563 99.5749L628.984 79.722ZM628.965 88.5742V75.5762H608.965V88.5742H628.965ZM618.965 85.5762H646.68V65.5762H618.965V85.5762ZM636.68 75.5762V108.018H656.68V75.5762H636.68ZM641.265 99.6104C638.028 101.695 634.258 103.331 629.868 104.451L634.81 123.83C641.09 122.229 646.881 119.782 652.094 116.425L641.265 99.6104ZM629.914 104.439C625.505 105.541 620.582 106.128 615.098 106.128V126.128C622.003 126.128 628.574 125.39 634.764 123.842L629.914 104.439ZM652.695 115H642.695V125H652.695V115ZM652.695 103.989L650.622 94.2065L642.695 95.8864V103.989H652.695ZM660.806 102.271L662.879 112.053L670.806 110.373V102.271H660.806ZM660.806 49.5801H670.806V41.4772L662.879 39.7973L660.806 49.5801ZM652.695 47.8613H642.695V55.9642L650.622 57.6441L652.695 47.8613ZM652.695 36.7969V26.7969H642.695V36.7969H652.695ZM715.161 36.7969H725.161V26.7969H715.161V36.7969ZM715.161 59.3555V69.3555H725.161V59.3555H715.161ZM700.928 59.3555L690.942 59.888L691.447 69.3555H700.928V59.3555ZM700.498 51.2988L710.484 50.7663L709.979 41.2988H700.498V51.2988ZM679.658 51.2988V41.2988H669.658V51.2988H679.658ZM679.658 67.3584H669.658V77.3584H679.658V67.3584ZM704.634 67.3584H714.634V57.3584H704.634V67.3584ZM704.634 81.8066V91.8066H714.634V81.8066H704.634ZM679.658 81.8066V71.8066H669.658V81.8066H679.658ZM679.658 100.444H669.658V110.444H679.658V100.444ZM701.519 100.444V110.444H711.022L711.506 100.953L701.519 100.444ZM701.948 92.0117V82.0117H692.445L691.961 91.5028L701.948 92.0117ZM716.021 92.0117H726.021V82.0117H716.021V92.0117ZM716.021 115V125H726.021V115H716.021ZM662.695 115V103.989H642.695V115H662.695ZM654.768 113.772L662.879 112.053L658.733 92.4878L650.622 94.2065L654.768 113.772ZM670.806 102.271V49.5801H650.806V102.271H670.806ZM662.879 39.7973L654.768 38.0786L650.622 57.6441L658.733 59.3628L662.879 39.7973ZM662.695 47.8613V36.7969H642.695V47.8613H662.695ZM652.695 46.7969H715.161V26.7969H652.695V46.7969ZM705.161 36.7969V59.3555H725.161V36.7969H705.161ZM715.161 49.3555H700.928V69.3555H715.161V49.3555ZM710.914 58.8229L710.484 50.7663L690.512 51.8314L690.942 59.888L710.914 58.8229ZM700.498 41.2988H679.658V61.2988H700.498V41.2988ZM669.658 51.2988V67.3584H689.658V51.2988H669.658ZM679.658 77.3584H704.634V57.3584H679.658V77.3584ZM694.634 67.3584V81.8066H714.634V67.3584H694.634ZM704.634 71.8066H679.658V91.8066H704.634V71.8066ZM669.658 81.8066V100.444H689.658V81.8066H669.658ZM679.658 110.444H701.519V90.4443H679.658V110.444ZM711.506 100.953L711.935 92.5206L691.961 91.5028L691.532 99.9354L711.506 100.953ZM701.948 102.012H716.021V82.0117H701.948V102.012ZM706.021 92.0117V115H726.021V92.0117H706.021ZM716.021 105H652.695V125H716.021V105Z" fill="black"/>
</svg>
